<svg xmlns="http://www.w3.org/2000/svg" width="1024" height="1024" viewBox="0 0 1024 1024">
  <defs>
    <style>
      .cls-1 {
        fill: #2176b8;
      }

      .cls-1, .cls-2, .cls-3 {
        fill-rule: evenodd;
      }

      .cls-2 {
        fill: #21a35e;
      }

      .cls-3 {
        fill: #fff;
      }
    </style>
  </defs>
  <path class="cls-1" d="M235.906,403.705s128.985,0.045,134.236,0,11.469-10.317,13.234-17.016c5.108-15.161,31.84-82.157,37.813-101.15,4.2-13.162,12.951-19.715,22.688-19.852s18.817,4.673,21.743,18.907,53.536,187.336,56.719,198.518c0.3,1.231,1.577,1.267,1.891,0,10.64-28.981,46.025-130.875,50.1-140.853,2.481-7.351,11.465-12.347,17.016-12.29s12.391,3.966,14.179,5.672c3.666,3.021,28.827,51.72,34.032,60.5,3.07,5.37,6.18,6.532,8.508,7.563q11.391,0.057,22.777.122Q685.426,403.91,700,404a17.237,17.237,0,0,1,11.735,6.289c1.406,1.782,3.154,6.219,3.45,12.322,0.614,12.687-7.483,18.821-15.125,18.907-3.328,1.751-70.918.972-74.681,0.945-4.332-.071-10.124-5.393-11.344-9.453-1.92-3.8-14.228-26.6-17.016-33.087a1.8,1.8,0,0,0-1.89,0c-0.879,1.354-49.487,142.885-53.884,155.033-5.623,18.288-32.563,23.639-39.7.946-17.415-60.734-48.62-173.876-58.61-206.081a1.138,1.138,0,0,0-1.891,0c-1.829,5.668-32.851,79-34.977,83.189-2.938,5.311-10.52,9.534-16.07,9.453s-121,0-121,0H267.1Z"/>
  <path class="cls-2" d="M511,170.21s62.847-91.364,181.5-90.751c82.556,3.028,198.664,58.655,204.19,211.752,0.121,36.131-8.339,116.034-87.915,199.463-34.59,38.7-172.254,158.594-275.089,261.855-12.823,16.791-27.011,17.185-42.54,1.891-64.9-70.137-223.778-206.9-277.925-264.562-51.815-54.721-82.486-119.593-86.024-199.232,3.473-139.311,111.1-211.167,206.08-211.167,90.507,2.474,137.29,43.7,175.83,88.86Zm0.945,88.86s8.994-.208,14.18-5.672c50.847-44.754,76.587-101.15,160.705-101.149,92.295-.106,139.055,77.6,137.072,138.377-2.089,59.505-15.845,95.529-71.844,153.728S550.846,625.016,517.612,664.614c-1.8,2.195-8.041,2.4-10.4,0C482.785,631.388,308.4,488.7,273.719,445.3c-39.353-42.287-75.848-90.572-73.735-154.673-1.914-63.051,45.1-137.208,138.962-138.377,84.3-4.486,137.411,87.049,158.815,101.149C502.794,257.179,506.137,258.53,511.94,259.07Z"/>
  <path id="CareTracker" class="cls-3" d="M923.446,858.68a9.019,9.019,0,0,1-6.075,2.775l-3.3.3q-9.15.9-13.8,5.625t-4.65,13.275v31.05q0,4.65-2.4,7.125t-7.05,2.475q-4.65,0-7.125-2.475t-2.475-7.125v-56.7q0-4.649,2.4-7.05a10.692,10.692,0,0,1,13.5,0q2.4,2.4,2.4,7.05v4.748a21.09,21.09,0,0,1,6.75-8.948q6.15-4.648,16.35-5.55A5.937,5.937,0,0,1,923,846.83q1.875,1.876,2.175,5.775A7.9,7.9,0,0,1,923.446,858.68Zm-68.925,29.025h-45.35q0.945,8.746,5.525,13.575,5.773,6.075,17.025,6.075a45.111,45.111,0,0,0,8.775-.975,31.98,31.98,0,0,0,9.225-3.375,9.653,9.653,0,0,1,5.55-1.575,5.826,5.826,0,0,1,3.825,1.725,6.485,6.485,0,0,1,1.725,3.675,7.467,7.467,0,0,1-.825,4.425,9.818,9.818,0,0,1-3.825,3.9A38.976,38.976,0,0,1,844.1,920.03a56.608,56.608,0,0,1-12.675,1.575q-12.452,0-21.45-4.65a33.043,33.043,0,0,1-13.875-13.2q-4.875-8.55-4.875-20.25a40.59,40.59,0,0,1,4.725-19.95A34.722,34.722,0,0,1,809,850.13a39.564,39.564,0,0,1,33-2.325,29.507,29.507,0,0,1,10.65,7.35,32.264,32.264,0,0,1,6.75,11.625,47.52,47.52,0,0,1,2.325,15.375,4.866,4.866,0,0,1-1.875,4.125A8.648,8.648,0,0,1,854.521,887.705Zm-10.425-20.1a15.672,15.672,0,0,0-5.85-7.125,17.19,17.19,0,0,0-9.525-2.475A19.011,19.011,0,0,0,818,860.93a18.452,18.452,0,0,0-6.75,8.25,27.768,27.768,0,0,0-2.028,7.725h36.839A26.8,26.8,0,0,0,844.1,867.605Zm-62.25,47.025a6.678,6.678,0,0,1-2.475,4.8,8.608,8.608,0,0,1-5.7,1.875,11.89,11.89,0,0,1-6.675-1.65,31.033,31.033,0,0,1-5.475-4.95l-26.1-27.3h-0.3v24.3q0,9.6-9.45,9.6-4.5,0-6.9-2.475t-2.4-7.125v-89.1q0-4.649,2.4-7.05t6.9-2.4a9.61,9.61,0,0,1,6.975,2.4q2.475,2.4,2.475,7.05v55.35h0.3l24.75-26.1a47.562,47.562,0,0,1,5.25-4.65,10.2,10.2,0,0,1,6.15-1.65,8.029,8.029,0,0,1,5.925,2.025,6.647,6.647,0,0,1,2.025,4.875,8.391,8.391,0,0,1-2.7,5.7l-22.448,23.738,25,26.962Q782.071,911.705,781.846,914.63Zm-79.2-51.9a6.063,6.063,0,0,1-3.525,1.95,7.224,7.224,0,0,1-4.65-.975,28.549,28.549,0,0,0-6.75-2.925,24.267,24.267,0,0,0-6.6-.975,22.323,22.323,0,0,0-8.7,1.575,17.59,17.59,0,0,0-6.375,4.5,19.266,19.266,0,0,0-3.975,7.275,33.96,33.96,0,0,0-1.35,10.05q0,11.1,5.325,17.475t15.075,6.375a25.291,25.291,0,0,0,6.525-.9,29.2,29.2,0,0,0,6.825-2.85,6.685,6.685,0,0,1,4.575-.9,6.068,6.068,0,0,1,3.375,2.025,7.138,7.138,0,0,1,1.65,3.75,8.391,8.391,0,0,1-.525,4.275,7.013,7.013,0,0,1-3.075,3.45,37.024,37.024,0,0,1-10.5,4.35,44.486,44.486,0,0,1-10.5,1.35q-11.552,0-20.1-4.725a32.522,32.522,0,0,1-13.2-13.425,42.655,42.655,0,0,1-4.65-20.4,44.7,44.7,0,0,1,2.625-15.825,32.37,32.37,0,0,1,7.575-11.85,33.512,33.512,0,0,1,12-7.5,44.883,44.883,0,0,1,15.75-2.625,47.31,47.31,0,0,1,10.725,1.35,36.3,36.3,0,0,1,10.875,4.5,7.175,7.175,0,0,1,3.15,3.6A8.038,8.038,0,0,1,702.646,862.73Zm-84.825,58.575a8.517,8.517,0,0,1-6.525-2.475q-2.327-2.475-2.325-7.125v-3.159a19.714,19.714,0,0,1-2.925,5.034,20.66,20.66,0,0,1-7.725,5.925,25.644,25.644,0,0,1-10.65,2.1A31.611,31.611,0,0,1,573.5,918.53a24.509,24.509,0,0,1-9.75-8.325,20.772,20.772,0,0,1-3.525-11.85q0-8.1,4.2-12.825t13.65-6.825q9.45-2.1,25.35-2.1h5.25v-3.15q0-7.5-3.3-10.8t-11.1-3.3a46.055,46.055,0,0,0-9.375,1.05,49.908,49.908,0,0,0-10.575,3.6,7.227,7.227,0,0,1-5.025.75,5.65,5.65,0,0,1-3.375-2.475,7.49,7.49,0,0,1-1.2-4.125,9.054,9.054,0,0,1,1.2-4.425,7.246,7.246,0,0,1,4.05-3.225,67.778,67.778,0,0,1,13.275-4.05,63.289,63.289,0,0,1,11.625-1.2q10.8,0,17.775,3.3a21.967,21.967,0,0,1,10.425,9.975q3.45,6.675,3.45,17.175v36q0,4.65-2.25,7.125A8.275,8.275,0,0,1,617.821,921.305Zm-9.15-33.9h-5.1a96.967,96.967,0,0,0-14.85.9q-5.55.9-7.875,3.075a7.908,7.908,0,0,0-2.325,6.075,10.469,10.469,0,0,0,3.45,8.1q3.45,3.15,9.6,3.15a16.546,16.546,0,0,0,8.775-2.325,16.929,16.929,0,0,0,6.075-6.375,18.826,18.826,0,0,0,2.25-9.3v-3.3Zm-62.4-25.95-3.3.3q-9.15.9-13.8,5.625t-4.65,13.275v31.05q0,4.65-2.4,7.125t-7.05,2.475q-4.65,0-7.125-2.475t-2.475-7.125v-56.7q0-4.649,2.4-7.05a10.692,10.692,0,0,1,13.5,0q2.4,2.4,2.4,7.05v4.748a21.09,21.09,0,0,1,6.75-8.948q6.15-4.648,16.35-5.55a5.937,5.937,0,0,1,5.025,1.575q1.875,1.876,2.175,5.775a7.9,7.9,0,0,1-1.725,6.075A9.019,9.019,0,0,1,546.271,861.455Zm-46.5-31.05h-29.25v81a10.383,10.383,0,0,1-2.4,7.275q-2.4,2.622-7.2,2.625-4.65,0-7.125-2.625a10.182,10.182,0,0,1-2.475-7.275v-81h-29.25A8.209,8.209,0,0,1,416,828.23a8,8,0,0,1-2.175-5.925A7.7,7.7,0,0,1,416,816.38a8.571,8.571,0,0,1,6.075-2.025h77.7a8.574,8.574,0,0,1,6.075,2.025,7.707,7.707,0,0,1,2.175,5.925,8.009,8.009,0,0,1-2.175,5.925A8.212,8.212,0,0,1,499.771,830.405Zm-97.8,57.3h-45.35q0.945,8.746,5.525,13.575,5.773,6.075,17.025,6.075a45.111,45.111,0,0,0,8.775-.975,31.98,31.98,0,0,0,9.225-3.375,9.653,9.653,0,0,1,5.55-1.575,5.826,5.826,0,0,1,3.825,1.725,6.485,6.485,0,0,1,1.725,3.675,7.467,7.467,0,0,1-.825,4.425,9.818,9.818,0,0,1-3.825,3.9,38.976,38.976,0,0,1-12.075,4.875,56.608,56.608,0,0,1-12.675,1.575q-12.452,0-21.45-4.65a33.043,33.043,0,0,1-13.875-13.2q-4.875-8.55-4.875-20.25a40.59,40.59,0,0,1,4.725-19.95,34.722,34.722,0,0,1,13.05-13.425,39.564,39.564,0,0,1,33-2.325,29.507,29.507,0,0,1,10.65,7.35,32.264,32.264,0,0,1,6.75,11.625,47.52,47.52,0,0,1,2.325,15.375,4.866,4.866,0,0,1-1.875,4.125A8.648,8.648,0,0,1,401.971,887.705Zm-10.425-20.1a15.672,15.672,0,0,0-5.85-7.125,17.19,17.19,0,0,0-9.525-2.475,19.011,19.011,0,0,0-10.725,2.925,18.452,18.452,0,0,0-6.75,8.25,27.768,27.768,0,0,0-2.028,7.725h36.839A26.8,26.8,0,0,0,391.546,867.605Zm-65.625-6.15-3.3.3q-9.15.9-13.8,5.625t-4.65,13.275v31.05q0,4.65-2.4,7.125t-7.05,2.475q-4.65,0-7.125-2.475t-2.475-7.125v-56.7q0-4.649,2.4-7.05a10.692,10.692,0,0,1,13.5,0q2.4,2.4,2.4,7.05v4.748a21.09,21.09,0,0,1,6.75-8.948q6.15-4.648,16.35-5.55a5.937,5.937,0,0,1,5.025,1.575q1.875,1.876,2.175,5.775A7.9,7.9,0,0,1,332,858.68,9.019,9.019,0,0,1,325.921,861.455Zm-68.55,59.85a8.517,8.517,0,0,1-6.525-2.475q-2.327-2.475-2.325-7.125v-3.159a19.714,19.714,0,0,1-2.925,5.034,20.66,20.66,0,0,1-7.725,5.925,25.644,25.644,0,0,1-10.65,2.1,31.611,31.611,0,0,1-14.175-3.075,24.509,24.509,0,0,1-9.75-8.325,20.772,20.772,0,0,1-3.525-11.85q0-8.1,4.2-12.825t13.65-6.825q9.45-2.1,25.35-2.1h5.25v-3.15q0-7.5-3.3-10.8t-11.1-3.3a46.055,46.055,0,0,0-9.375,1.05,49.908,49.908,0,0,0-10.575,3.6,7.227,7.227,0,0,1-5.025.75,5.65,5.65,0,0,1-3.375-2.475,7.49,7.49,0,0,1-1.2-4.125,9.054,9.054,0,0,1,1.2-4.425,7.246,7.246,0,0,1,4.05-3.225,67.778,67.778,0,0,1,13.275-4.05,63.289,63.289,0,0,1,11.625-1.2q10.8,0,17.775,3.3a21.967,21.967,0,0,1,10.425,9.975q3.45,6.675,3.45,17.175v36q0,4.65-2.25,7.125A8.275,8.275,0,0,1,257.371,921.305Zm-9.15-33.9h-5.1a96.967,96.967,0,0,0-14.85.9q-5.55.9-7.875,3.075a7.908,7.908,0,0,0-2.325,6.075,10.469,10.469,0,0,0,3.45,8.1q3.45,3.15,9.6,3.15a16.546,16.546,0,0,0,8.775-2.325,16.929,16.929,0,0,0,6.075-6.375,18.826,18.826,0,0,0,2.25-9.3v-3.3Zm-64.95,25.2a44.586,44.586,0,0,1-14.325,6.675,62.494,62.494,0,0,1-16.875,2.325q-16.5,0-28.275-6.675a44.838,44.838,0,0,1-18.075-18.9q-6.3-12.225-6.3-28.875a65.738,65.738,0,0,1,3.6-22.425,48.4,48.4,0,0,1,10.35-17.1,44.91,44.91,0,0,1,16.575-10.95,60.577,60.577,0,0,1,22.125-3.825,63.179,63.179,0,0,1,16.2,2.1,47.837,47.837,0,0,1,13.95,6,9.667,9.667,0,0,1,4.2,4.725,9.212,9.212,0,0,1,.45,5.4,8.67,8.67,0,0,1-2.475,4.425,7.357,7.357,0,0,1-4.65,2.025,9.946,9.946,0,0,1-6.075-1.875,33.315,33.315,0,0,0-10.05-4.35,44.987,44.987,0,0,0-10.95-1.35q-10.651,0-18,4.35a27.363,27.363,0,0,0-11.1,12.6q-3.75,8.25-3.75,20.25,0,11.85,3.75,20.25a27.237,27.237,0,0,0,11.1,12.75q7.349,4.352,18,4.35a45.015,45.015,0,0,0,11.25-1.425,38.731,38.731,0,0,0,10.5-4.425,10.167,10.167,0,0,1,5.925-1.725,7.271,7.271,0,0,1,4.425,1.875,8.027,8.027,0,0,1,2.4,4.125,8.956,8.956,0,0,1-.3,5.1A9.452,9.452,0,0,1,183.271,912.605Z"/>
</svg>
